<svg xmlns="http://www.w3.org/2000/svg" aria-hidden="true" overflow="hidden" style="position:absolute;width:0;height:0"><defs><symbol id="icon-burger" viewBox="0 0 32 32"><path d="M6.4 11.73V9.6h19.2v2.13H6.4zm0 5.34h19.2v-2.14H6.4v2.14zm0 5.33h19.2v-2.13H6.4v2.13z"/></symbol><symbol id="icon-close-40px" viewBox="0 0 32 32"><path d="M23.73 10.3l-1.5-1.5-5.96 5.96L10.3 8.8l-1.5 1.5 5.96 5.97-5.96 5.96 1.5 1.5 5.97-5.96 5.96 5.96 1.5-1.5-5.96-5.96 5.96-5.97z"/></symbol><symbol id="icon-envelope" viewBox="0 0 45 32"><path d="M40.6 0H4.2A4.1 4.1 0 000 4v24c0 2.2 1.88 4 4.2 4h36.4a4.1 4.1 0 004.2-4V4c0-2.2-1.88-4-4.2-4zm0 2.67c.19 0 .37.03.54.1L22.4 18.24 3.66 2.77c.17-.07.35-.1.54-.1h36.4zm0 26.66H4.2c-.77 0-1.4-.6-1.4-1.33V5.59L21.48 21a1.44 1.44 0 001.84 0L42 5.59V28c0 .74-.63 1.33-1.4 1.33z"/></symbol><symbol id="icon-smartphone" viewBox="0 0 23 32"><path d="M19.43 0h-16C1.53 0 0 1.35 0 3v26c0 1.65 1.54 3 3.43 3h16c1.89 0 3.43-1.35 3.43-3V3c0-1.65-1.54-3-3.43-3zm-16 2h16c.63 0 1.14.45 1.14 1v21H2.3V3c0-.55.5-1 1.14-1zm16 28h-16c-.63 0-1.14-.45-1.14-1v-3h18.28v3c0 .55-.51 1-1.14 1z"/><path d="M5.38 27.3c.45.38.45 1.02 0 1.4s-1.17.4-1.62 0c-.44-.38-.44-1.02 0-1.4s1.17-.4 1.62 0z"/></symbol><symbol id="icon-antenna" viewBox="0 0 32 32"><path d="M30.77 22.1l-8.44-8.5.94-4.62c.24.1.5.14.75.14h.01a2.16 2.16 0 10-2-1.43l-4.97.6L8.97.16A.53.53 0 008.6 0a.53.53 0 00-.37.16l-1.51 1.5c-.2.2-.2.55 0 .75l.81.83a14.94 14.94 0 002.52 17.66c.05.04.1.08.15.1-.04.18-.05.36-.05.55v6.18h-6.4a2.67 2.67 0 00-2.67 2.67v1.07c0 .3.24.53.53.53h24.54c.29 0 .53-.24.53-.53V30.4c0-1.47-1.2-2.66-2.67-2.66h-6.4v-2.75a14.85 14.85 0 0010.09-1.46l.82.82a.53.53 0 00.75 0l1.51-1.5c.2-.2.2-.54 0-.75zM23.28 6.23a1.07 1.07 0 11.75 1.82 1.07 1.07 0 01-.75-1.82zm-1.26 3.5l-.6 2.95-1.17-1.18 1.78-1.76zm-.6-.9l-1.92 1.92L18 9.25l3.4-.41zM24 28.8c.89 0 1.6.72 1.6 1.6v.53H2.14v-.53c0-.88.71-1.6 1.6-1.6H24zm-7.46-2.13v1.06H11.2v-1.06h5.34zM11.2 25.6v-4.05c0-1.3 1.2-2.35 2.67-2.35s2.67 1.05 2.67 2.35v4.05H11.2zm6.4-1.7v-2.35c0-1.89-1.67-3.42-3.73-3.42a3.8 3.8 0 00-3.28 1.79A13.87 13.87 0 018.31 4.03l18.6 18.71a13.82 13.82 0 01-9.3 1.16zm11.3-.68L7.83 2.04l.75-.75 7.94 7.98 13.12 13.2-.76.75z"/><path class="antenna-circle" fill="currentColor" d="M13.88 20.27a1.6 1.6 0 10-.01 3.2 1.6 1.6 0 100-3.2zm.37 1.98c-.1.1-.24.15-.38.15a.53.53 0 010-1.07.53.53 0 01.37.92z"/></symbol><symbol id="icon-clock" viewBox="0 0 32 32"><path d="M31.3 15.3a15.3 15.3 0 10-19.96 14.58l.18.03c.12 0 .24-.03.35-.1.13-.07.23-.2.28-.35L16 17.21a1.91 1.91 0 10-.84-3.63l-5.1-5.1a.64.64 0 00-.9.9l5.1 5.1c-.4.8-.17 1.77.53 2.31l-3.68 11.67a14.04 14.04 0 1110.57-.35l-.4-1.87a.64.64 0 00-1.04-.34l-3.84 3.42a.64.64 0 00.23 1.09l4.9 1.56a.64.64 0 00.82-.74l-.4-1.84A15.26 15.26 0 0031.3 15.3zM16 14.66a.64.64 0 110 1.28.64.64 0 010-1.28zm2.1 14.87l2.18-1.95.6 2.84-2.79-.9z"/><path class="clock-ticks" fill="currentColor" d="M15.35 3.19v1.27a.64.64 0 101.28 0V3.19a.64.64 0 00-1.28 0zM3.88 14.66a.64.64 0 000 1.28h1.27a.64.64 0 100-1.28H3.88zM28.1 15.94a.64.64 0 100-1.28h-1.27a.64.64 0 000 1.28h1.28z"/></symbol><symbol id="icon-diagram" viewBox="0 0 32 32"><path class="diagram-bars" fill="currentColor" d="M14.93 14.96h1.06v4.8h-1.06v-4.8zM19.19 17.1h1.07v2.66h-1.07V17.1zM10.66 18.7h1.07v1.06h-1.07V18.7zM7.46 18.16h1.07v1.6H7.46v-1.6z"/><path d="M1.6 28.3h25.59c.88 0 1.6-.73 1.6-1.6v-2.14c0-.88-.72-1.6-1.6-1.6h-.54V9.66l3.03-2.86a1.6 1.6 0 10-.75-.76L26.65 8.2V6.97c0-.88-.71-1.6-1.6-1.6H3.73c-.88 0-1.6.72-1.6 1.6v16H1.6c-.88 0-1.6.7-1.6 1.6v2.12c0 .89.72 1.6 1.6 1.6zM30.38 4.83a.53.53 0 110 1.06.53.53 0 010-1.06zM3.2 6.97c0-.3.24-.53.53-.53h21.32c.3 0 .54.23.54.53V9.2l-1.07 1.01V8.03c0-.29-.24-.53-.53-.53H4.79c-.29 0-.53.24-.53.53v13.33c0 .3.24.53.54.53h19.19c.3 0 .53-.23.53-.53V11.7l1.07-1.01v12.28H3.19v-16zM8 13.9a1.6 1.6 0 101.1 2.75l1.86.93c.21.1.47.05.63-.13l3.94-4.43 3.87 2.9c.21.16.5.14.69-.04l3.36-3.18v8.13H5.33V8.57h18.12v2.66l-3.77 3.57-3.9-2.93a.53.53 0 00-.72.07l-4 4.5-1.49-.75c.02-.06.02-.13.02-.2 0-.87-.71-1.59-1.6-1.59zm.53 1.6a.53.53 0 11-1.07 0 .53.53 0 011.07 0zm3.2 8.53h5.33v.53c0 .3-.24.53-.53.53h-4.27a.53.53 0 01-.53-.53v-.53zm-10.66.53c0-.3.24-.53.53-.53h9.06v.53c0 .88.72 1.6 1.6 1.6h4.26c.89 0 1.6-.72 1.6-1.6v-.53h9.06c.3 0 .54.24.54.53v2.13c0 .3-.24.53-.53.53H1.59a.53.53 0 01-.52-.53v-2.13z"/></symbol><symbol id="icon-astronaut" viewBox="0 0 32 32"><path class="astronaut-stars" fill="currentColor" d="M31.97 4.52a.53.53 0 00-.43-.36l-1.9-.28-.86-1.73c-.18-.36-.78-.36-.96 0l-.85 1.73-1.91.28a.54.54 0 00-.3.91l1.38 1.35-.32 1.9c-.04.2.05.4.21.52.17.12.38.14.56.04l1.71-.9 1.71.9a.54.54 0 00.78-.56l-.33-1.9 1.38-1.35c.15-.14.2-.35.14-.55zm-2.46 1.33a.53.53 0 00-.15.47l.19 1.12-1-.53a.53.53 0 00-.5 0l-1 .53.2-1.12a.53.53 0 00-.16-.47l-.81-.79 1.12-.16a.53.53 0 00.4-.3l.5-1 .5 1c.08.16.23.27.4.3l1.12.16-.8.8zM26.13 20.52h-1.06v1.07h1.06v-1.07zM26.13 22.66h-1.06v1.06h1.06v-1.06zM27.2 21.59h-1.07v1.07h1.07v-1.07zM25.07 21.59H24v1.07h1.07v-1.07zM22.4 26.39h-1.07v1.07h1.07v-1.07zM22.4 28.52h-1.07v1.07h1.07v-1.07zM23.47 27.46H22.4v1.06h1.07v-1.06zM21.33 27.46h-1.06v1.06h1.06v-1.06zM16 24.26h-1.07v1.06H16v-1.06zM16 26.39h-1.07v1.07H16v-1.07zM17.07 25.32H16v1.07h1.07v-1.07zM14.93 25.32h-1.06v1.07h1.06v-1.07zM5.87 6.12H4.8V7.2h1.07V6.12zM5.87 8.26H4.8v1.06h1.07V8.26zM6.93 7.19H5.87v1.07h1.06V7.19zM4.8 7.19H3.73v1.07H4.8V7.19z"/><path d="M24.71 14.16c-.28-.39-.7-.64-1.18-.7-.48-.07-.96.05-1.34.35l-1.26.96-1.9 1.41-1.35-.54A6.94 6.94 0 0014.83 2.4a6.96 6.96 0 00-6.96 6.93c0 1.39.42 2.68 1.12 3.76l-2.76-.02H6.2l-.16.03-.03.02h-.02l-3.24 1.6-1.89.9a1.78 1.78 0 00.93 3.3c.3.01.58-.06.84-.2l1.4-.74 2.26-1.17h1.35L2.2 22.2.86 23.55a1.65 1.65 0 000 2.35 1.67 1.67 0 002.36 0l1.31-1.3 1.74-1.3.9.89-1.76 1.75-1.34 1.34a1.65 1.65 0 000 2.36 1.67 1.67 0 002.36 0l3.48-3.47 1.01-1 .02-.02 5.17-5.66 3.47.5h.07c.07 0 .13-.02.2-.04l.04-.02.06-.03 3.21-2.13.03-.03.04-.03 1.27-1.19c.67-.62.76-1.63.22-2.36zM2.14 17.77a.71.71 0 01-.56.05.72.72 0 01-.21-1.26l1.31-.63.45 1.31-.99.53zm3.5-1.83l-1.55.8-.44-1.28 2.03-1-.04 1.48zm15.1-6.62c0 .92-.22 1.79-.6 2.56l-4.18-1.9a1.86 1.86 0 00-.8-1.39l1.47-4.86a5.88 5.88 0 014.1 5.6zm-11.8 0a5.89 5.89 0 016.65-5.81l-1.44 4.75h-.05a1.87 1.87 0 100 3.73c.7 0 1.3-.38 1.62-.95l3.86 1.76A5.9 5.9 0 018.94 9.32zm5.96.8a.8.8 0 01-1.6 0 .8.8 0 011.6 0zM2.46 25.15a.6.6 0 01-.85 0 .6.6 0 010-.85l.96-.95.85.84-.96.96zm3.22 3.73a.6.6 0 01-.86 0 .6.6 0 010-.84l.97-.96.85.85-.96.95zm3.48-3.47l-1.77 1.76-.85-.85 1.76-1.75c.05-.04.07-.09.1-.14l.02-.04c.02-.04.02-.08.03-.13l.01-.07-.02-.1c0-.04 0-.07-.02-.1a.55.55 0 00-.09-.14l-.02-.04-1.61-1.6-.06-.04a.5.5 0 00-.09-.05.51.51 0 00-.09-.04.5.5 0 00-.1-.02.5.5 0 00-.1 0l-.1.03a.48.48 0 00-.1.04l-.06.03-1.77 1.33-.9-.9 2.4-2.39 4.36 4.3-.93.91zm6.82-7.02h-.05a.56.56 0 00-.3.08.5.5 0 00-.08.06l-.04.03-4.7 5.15-4.33-4.26 2.84-2.82a.53.53 0 00-.38-.9H6.72l.03-1.6 3.1.02a6.95 6.95 0 006.26 1.98c.04.03.08.07.13.09l2.41.96.15.75.18.89-3-.43zm4.04.18l-.31-1.56 1.44-1.08.95 1.26-2.08 1.38zm3.75-2.83l-.83.79-.94-1.24.84-.64a.73.73 0 01.54-.14.72.72 0 01.4 1.23z"/><path d="M13.6 18.54l-2.14-2.13a.53.53 0 00-.75 0l-2.15 2.13a.54.54 0 000 .76l2.15 2.13a.54.54 0 00.75 0l2.14-2.13a.54.54 0 000-.76zm-2.52 1.76L9.7 18.92l1.38-1.38 1.39 1.38-1.39 1.38zM17.16 5.07l-.25 1.04c.07.01 1.73.45 1.73 2.15h1.07c0-2.02-1.66-2.97-2.55-3.19zM19.71 9.32h-1.07v1.07h1.07V9.32z"/></symbol><symbol id="icon-instagram" viewBox="0 0 32 32"><path d="M31.97 9.4a11.7 11.7 0 00-.74-3.87 7.8 7.8 0 00-1.86-2.84A7.87 7.87 0 0026.54.84C25.52.45 24.36.17 22.66.1 20.95.02 20.4 0 16.06 0s-4.89.02-6.6.1C7.76.16 6.6.43 5.58.83a7.8 7.8 0 00-2.84 1.85A7.87 7.87 0 00.9 5.52C.5 6.54.23 7.7.16 9.4c-.08 1.71-.1 2.26-.1 6.6s.02 4.9.09 6.6c.08 1.7.35 2.87.74 3.88a7.9 7.9 0 001.85 2.84c.8.81 1.77 1.44 2.84 1.84 1.02.4 2.18.67 3.88.75 1.7.07 2.25.09 6.6.09s4.88-.02 6.59-.1a11.7 11.7 0 003.88-.74 8.18 8.18 0 004.68-4.68c.4-1.02.67-2.18.75-3.88.07-1.7.09-2.25.09-6.6s0-4.89-.08-6.6zm-2.88 13.07a8.76 8.76 0 01-.55 2.97 5.31 5.31 0 01-3.04 3.04c-.56.22-1.41.48-2.97.55-1.69.07-2.2.1-6.46.1s-4.79-.02-6.47-.1a8.76 8.76 0 01-2.97-.55 4.93 4.93 0 01-1.84-1.2 4.97 4.97 0 01-1.19-1.83 8.81 8.81 0 01-.55-2.97c-.07-1.69-.1-2.2-.1-6.47s.03-4.78.1-6.46c.07-1.56.33-2.4.55-2.97.26-.7.66-1.32 1.2-1.84a4.97 4.97 0 011.84-1.19A8.81 8.81 0 019.6 3c1.69-.07 2.2-.1 6.46-.1 4.28 0 4.78.03 6.47.1 1.56.07 2.4.33 2.96.55.7.26 1.33.66 1.84 1.2.53.51.94 1.14 1.2 1.83.22.57.48 1.42.55 2.97.07 1.69.1 2.2.1 6.46s-.03 4.77-.1 6.46z"/><path d="M16.06 7.78a8.22 8.22 0 100 16.45 8.22 8.22 0 000-16.45zm0 13.55a5.33 5.33 0 110-10.66 5.33 5.33 0 010 10.67zM26.52 7.46a1.92 1.92 0 11-3.83 0 1.92 1.92 0 013.83 0z"/></symbol><symbol id="icon-twitter" viewBox="0 0 32 32"><path d="M32 6.08c-1.19.52-2.46.87-3.78 1.03a6.52 6.52 0 002.89-3.62 13.11 13.11 0 01-4.16 1.59 6.57 6.57 0 00-11.2 5.98A18.57 18.57 0 012.23 4.2a6.57 6.57 0 002.02 8.77 6.48 6.48 0 01-2.97-.81v.07a6.59 6.59 0 005.26 6.44 6.55 6.55 0 01-2.97.1 6.62 6.62 0 006.13 4.58 13.18 13.18 0 01-9.7 2.7A18.47 18.47 0 0010.06 29c12.08 0 18.68-10 18.68-18.67 0-.29-.01-.57-.03-.85 1.3-.92 2.4-2.07 3.29-3.4z"/></symbol><symbol id="icon-facebook" viewBox="0 0 32 32"><path d="M21.33 5.31h2.92V.23C23.75.15 22.01 0 19.99 0c-4.2 0-7.1 2.65-7.1 7.52V12H8.26v5.69h4.65V32h5.7V17.69h4.46l.7-5.69H18.6V8.08c0-1.64.45-2.77 2.74-2.77z"/></symbol><symbol id="icon-linkedin" viewBox="0 0 32 32"><path d="M32 32V20.26c0-5.74-1.24-10.16-7.95-10.16-3.23 0-5.39 1.77-6.27 3.45h-.1v-2.92h-6.36V32h6.63V21.42c0-2.79.52-5.48 3.97-5.48 3.4 0 3.45 3.18 3.45 5.66V32H32zM.53 10.64h6.63V32H.53V10.64zM3.84 0C1.72 0 0 1.72 0 3.84s1.72 3.88 3.84 3.88A3.88 3.88 0 007.7 3.84 3.85 3.85 0 003.84 0z"/></symbol><symbol id="icon-client-1" viewBox="0 0 57 32"><path d="M19.73 2.67l3.9 3.69H34.5v10.29l3.9 3.69V2.67H19.73z"/><path d="M16.53 6.2v17.17h18.14v-6.83L23.74 6.2h-7.2zm14.68 14.66h-11.8V9.3h.83v10.77H31.2v.78zM21.75 26.55l.44-.9h.37l-.64 1.2v.7h-.33v-.7l-.64-1.2h.37l.43.9zm1.88.56h-.74l-.15.44h-.34l.71-1.9h.3l.72 1.9h-.35l-.15-.44zm-.64-.27h.55l-.28-.78-.28.78zm1.94.2c0-.1.02-.17.07-.24s.14-.17.28-.27l-.15-.23a.43.43 0 01-.05-.2c0-.14.05-.26.14-.34s.21-.13.36-.13c.14 0 .25.04.34.12s.13.18.13.3c0 .08-.02.15-.06.22s-.1.13-.2.2l-.12.09.36.43c.06-.1.08-.22.08-.35h.28c0 .24-.06.43-.17.58l.28.33h-.36l-.11-.13c-.14.1-.3.15-.48.15s-.34-.05-.46-.14a.5.5 0 01-.16-.4zm.62.28c.11 0 .21-.03.3-.1l-.41-.5-.04.04c-.1.07-.16.16-.16.27 0 .08.03.16.09.21s.13.08.22.08zm-.17-1.22c0 .07.04.16.13.28l.15-.1.04-.04c.05-.04.08-.1.08-.18 0-.05-.02-.1-.06-.13s-.08-.05-.14-.05c-.06 0-.11.02-.15.06s-.05.1-.05.16zm3.44.83c-.02.2-.1.36-.22.48s-.3.16-.52.16c-.15 0-.28-.03-.4-.1s-.2-.18-.27-.3-.1-.3-.1-.47v-.18c0-.17.04-.33.1-.47s.15-.24.27-.31a.76.76 0 01.41-.11c.21 0 .38.05.5.17s.21.27.23.48h-.33c-.01-.14-.05-.24-.12-.3s-.15-.09-.28-.09c-.14 0-.25.06-.33.16s-.11.26-.12.46v.17c0 .2.04.36.11.47s.19.16.33.16c.13 0 .22-.03.29-.09s.1-.15.12-.29h.33zm1.81-.28c0 .19-.03.35-.1.49s-.15.25-.27.32a.75.75 0 01-.41.11c-.16 0-.3-.03-.41-.1s-.22-.19-.28-.33c-.07-.14-.1-.3-.1-.48v-.1c0-.2.03-.35.1-.5s.16-.25.27-.32c.12-.08.26-.11.42-.11a.74.74 0 01.68.43c.07.14.1.3.1.48v.11zm-.33-.1c0-.2-.04-.37-.12-.48s-.19-.17-.34-.17c-.14 0-.25.06-.33.17s-.12.27-.12.47v.11c0 .2.04.37.12.48s.2.17.34.17.26-.05.33-.16.12-.28.12-.49v-.1z"/></symbol><symbol id="icon-client-2" viewBox="0 0 57 32"><path d="M26.65 3.7h.08l.42.02c.64.05 1.27.14 1.9.29V2.48a11.38 11.38 0 00-2.75-.35h-.22c-1.32 0-2.64.18-3.92.5-1.45.37-2.85.94-4.15 1.7v15.14a16.86 16.86 0 017.28-2.05h.04l.57-.02v-1.55a18.28 18.28 0 00-5.81 1.02l-.54.18V5.25l.23-.12a15.08 15.08 0 016.3-1.44H26.66z"/><path d="M30.46 5.3a13.68 13.68 0 01-2.96-.33v14.97c.97.24 1.96.36 2.96.35a15.94 15.94 0 008.07-2.2V3.24a16.9 16.9 0 01-8.07 2.07zm5.99.26l.54-.19V17.2l-.24.1a14.79 14.79 0 01-7.34 1.41l-.37-.03V6.52l.43.03a18.28 18.28 0 006.97-1zM19.06 24.65a.8.8 0 00-.6-.25.9.9 0 00-.35.07.8.8 0 00-.5.78v2.03c0 .14.02.28.08.41a.72.72 0 00.48.41c.1.03.2.05.3.05a.86.86 0 00.84-.85v-.23h-.53v.18l-.03.18a.32.32 0 01-.08.12.38.38 0 01-.22.08.27.27 0 01-.25-.12.48.48 0 01-.07-.27v-1.89c0-.1.02-.2.06-.3l.11-.1c.04-.03.1-.03.15-.02.05 0 .1 0 .13.03s.08.05.1.08c.07.08.1.18.1.28v.17h.52v-.2a.95.95 0 00-.24-.64zM22.2 24.62a.94.94 0 00-.92-.16.82.82 0 00-.48.45.94.94 0 00-.08.39v1.94c0 .14.03.27.08.4.05.1.12.2.2.27.09.07.18.13.28.17.1.04.21.05.32.06s.21-.02.32-.06a.88.88 0 00.48-.44.93.93 0 00.08-.4V25.3a.94.94 0 00-.08-.4.87.87 0 00-.2-.28zm-.25 2.62a.36.36 0 01-.1.28.39.39 0 01-.5 0 .35.35 0 01-.1-.28V25.3a.36.36 0 01.1-.28.39.39 0 01.5 0 .35.35 0 01.1.28v1.94zM26.33 28.1v-3.67h-.51l-.67 1.95-.68-1.95h-.5v3.68h.52v-2.24h.01l.51 1.58h.27l.51-1.58h.01v2.24h.53zM29.31 24.69a.73.73 0 00-.3-.2 1.17 1.17 0 00-.38-.06h-.78v3.68h.53v-1.44h.27c.16 0 .32-.03.47-.1a.87.87 0 00.4-.6 2.54 2.54 0 00-.02-.94.78.78 0 00-.19-.34zm-.27 1.12c0 .07-.02.13-.05.2a.3.3 0 01-.13.12.54.54 0 01-.25.05h-.24v-1.25h.27a.5.5 0 01.24.04c.05.03.1.08.12.14.03.06.04.13.05.2v.5zM31.8 24.43h-.44l-.8 3.68h.52l.15-.8h.71l.16.8h.52l-.83-3.68zm-.5 2.39l.27-1.34.26 1.34h-.52zM35.17 26.65l-.8-2.22h-.5v3.68h.52V25.9h.01l.8 2.2h.5v-3.67h-.53v2.22zM38.37 24.43l-.42 1.46h-.01l-.42-1.46h-.56l.72 2.12v1.56h.53v-1.56l.72-2.12h-.56zM17.6 29.14h.25v.71h.17v-.7h.25V29h-.67v.14zM19.72 29l-.33.85h.18l.07-.2h.34l.07.2h.2L19.9 29h-.18zm-.03.51l.12-.31.12.31h-.24zM21.82 29.54h.2v.1a.33.33 0 01-.2.08c-.04 0-.08 0-.1-.02l-.09-.06a.35.35 0 01-.06-.23c0-.19.08-.28.24-.28.05 0 .1 0 .13.03s.06.06.07.1l.17-.03c-.04-.16-.16-.25-.37-.25a.43.43 0 00-.3.11.41.41 0 00-.12.33c0 .12.04.23.11.32a.4.4 0 00.33.12c.13 0 .26-.04.36-.13v-.34h-.37v.15zM23.96 29h-.17v.85h.6v-.14h-.43V29zM25.77 29h-.17v.85h.17V29zM27.54 29.57l-.35-.57h-.17v.85h.16v-.56l.35.56h.17V29h-.16v.57zM29.14 29.48h.42v-.15h-.42v-.19h.46V29h-.63v.85h.65v-.14h-.48v-.23zM33.02 29.34h-.34V29h-.17v.85h.17v-.37h.34v.37h.17V29h-.17v.34zM34.63 29.48h.42v-.15h-.42v-.19h.46V29h-.63v.85h.64v-.14h-.47v-.23zM36.81 29.48c.15-.03.23-.1.23-.24a.2.2 0 00-.09-.19.48.48 0 00-.25-.05h-.36v.85h.17v-.35h.04c.03 0 .07 0 .1.02.03.01.05.03.06.06l.19.27h.2l-.1-.17a.6.6 0 00-.19-.2zm-.17-.12h-.13v-.22h.14c.06 0 .12 0 .17.02l.03.04.01.05-.01.05-.04.04a.49.49 0 01-.17.02zM38.46 29.48h.42v-.15h-.42v-.19h.46V29h-.63v.85h.64v-.14h-.47v-.23z"/></symbol><symbol id="icon-client-3" viewBox="0 0 57 32"><path d="M20.45 27.09a.06.06 0 01.04.02l.11.11c-.08.1-.19.17-.3.22a1.1 1.1 0 01-.44.08c-.15 0-.29-.02-.42-.07a.88.88 0 01-.5-.53 1.15 1.15 0 01-.08-.4c0-.15.03-.29.08-.42a.95.95 0 01.54-.53c.14-.05.28-.07.43-.07.13 0 .26.02.39.07.1.04.2.1.3.18l-.1.13-.02.02a.06.06 0 01-.04 0h-.04l-.05-.04-.07-.04a.76.76 0 00-.38-.09c-.1 0-.2.02-.3.06a.7.7 0 00-.24.15.72.72 0 00-.15.25.88.88 0 00-.06.32c0 .11.02.22.06.33.03.09.08.17.15.24.06.07.14.12.23.15.09.04.18.06.28.06l.17-.01a.62.62 0 00.36-.17.08.08 0 01.05-.02zM23.62 26.51c0 .14-.02.28-.07.4a.92.92 0 01-.53.52c-.27.11-.57.11-.84.01a.94.94 0 01-.53-.52c-.1-.27-.1-.56 0-.82a.97.97 0 01.2-.32c.1-.09.21-.15.33-.2.27-.1.57-.1.83 0 .13.05.24.12.33.2a1.08 1.08 0 01.28.72zm-.29 0a.94.94 0 00-.05-.33.64.64 0 00-.38-.4.89.89 0 00-.6 0 .65.65 0 00-.38.4c-.07.22-.07.45 0 .66.03.09.08.17.14.24.07.07.15.12.24.16.2.07.4.07.6 0a.65.65 0 00.38-.4c.04-.1.05-.22.05-.33zM25.78 26.86l.03.07.03-.07a.6.6 0 01.04-.08l.7-1.21.04-.04h.26v1.97h-.24v-1.45-.06-.07l-.7 1.23a.11.11 0 01-.1.06h-.05l-.06-.01a.1.1 0 01-.04-.05l-.72-1.24V27.5h-.24v-1.97h.2a.2.2 0 01.06 0c.02.01.04.02.04.04l.72 1.22.03.07zM28.42 26.76v.74h-.27v-1.98h.6c.12 0 .24.02.35.05.09.02.17.06.24.12.06.05.1.12.14.2a.66.66 0 010 .5.54.54 0 01-.15.2.68.68 0 01-.25.13c-.1.03-.21.04-.33.04h-.33zm0-.21h.33a.7.7 0 00.22-.03l.15-.09a.35.35 0 00.1-.13c.01-.05.03-.11.03-.17l-.03-.16a.3.3 0 00-.1-.13.55.55 0 00-.37-.1h-.33v.8zM32.1 27.5h-.21a.1.1 0 01-.06-.02.12.12 0 01-.04-.05l-.18-.47h-.94l-.2.47a.1.1 0 01-.1.06h-.2l.82-1.97h.28l.84 1.98zm-1.35-.73h.77l-.32-.8a1.3 1.3 0 01-.07-.2l-.03.1c0 .04-.02.07-.03.1l-.32.8zM33.3 25.53l.03.04 1.2 1.49v-.07-1.47h.25v1.98h-.14a.1.1 0 01-.05-.01.14.14 0 01-.05-.04l-1.2-1.48V27.5h-.24v-1.97h.19zM36.8 26.71v.79h-.27v-.79l-.76-1.19H36a.1.1 0 01.06.02.2.2 0 01.04.05l.47.76a1.22 1.22 0 01.09.18l.03-.09a.64.64 0 01.05-.09l.47-.77a.24.24 0 01.04-.04.08.08 0 01.05-.02h.25l-.76 1.2zM25.65 22.21l.36.04c1.85-.8 3.41-2.08 4.5-3.72s1.64-3.53 1.6-5.46l-2.04-1.94c.41 2.05.22 4.18-.56 6.14s-2.12 3.67-3.86 4.94z"/><path d="M24.92 22.12l.05.01c1.87-1.27 3.29-3.04 4.08-5.1s.93-4.27.38-6.38l-2.9-2.77a12.85 12.85 0 01-1.61 14.24zM34.77 15.35c-.5 2.13-1.7 4.04-3.42 5.46-.5.42-1.05.79-1.62 1.11 1.4-.4 2.7-1.09 3.77-2.03s1.92-2.11 2.45-3.41l-1.18-1.13z"/><path d="M34.3 15.04l-1.67-1.6c-.03 1.82-.58 3.6-1.57 5.16s-2.42 2.83-4.11 3.68c.38 0 .76-.02 1.13-.06 1.58-.62 2.98-1.6 4.06-2.85s1.83-2.74 2.17-4.33zM25.16 6.71l-2-1.9c-1.8.65-3.33 1.8-4.42 3.31s-1.67 3.3-1.67 5.12c0 2.02.72 3.98 2.02 5.57s3.14 2.72 5.2 3.2a12.5 12.5 0 00.88-15.3zM38.93 14.75c0-2.4-1-4.7-2.78-6.39a9.78 9.78 0 00-10.1-2.05L38.3 17.98c.42-1.03.63-2.13.63-3.23z"/></symbol><symbol id="icon-client-4" viewBox="0 0 57 32"><path d="M13.55 11.64c-1.21 0-2.19.96-2.19 2.13 0 1.18.98 2.13 2.19 2.13 1.2 0 2.18-.95 2.18-2.13 0-1.17-.97-2.13-2.18-2.13zM29.67 10.96c0-1.63-.67-3.2-1.85-4.35s-2.8-1.8-4.47-1.81c-1.68 0-3.28.65-4.47 1.8s-1.85 2.73-1.85 4.36v9s12.64-1.37 12.64-9zM6.93 22.92c0 1.14.47 2.23 1.3 3.03a4.5 4.5 0 006.21 0c.82-.8 1.29-1.89 1.3-3.02v-6.27s-8.8.96-8.8 6.27zm4.4 1.13c-.22 0-.45-.07-.64-.2s-.33-.3-.42-.5-.11-.43-.07-.65c.05-.21.16-.41.32-.57s.36-.26.59-.3.45-.03.66.06c.21.08.4.23.52.41s.2.4.2.62a1.1 1.1 0 01-.34.8 1.14 1.14 0 01-.82.33zM20.31 23.35h-.9v.93h-.46v-2.27h1.48v.38H19.4v.58h.9v.38zm2.26-.16c0 .23-.04.42-.12.6s-.2.3-.34.38a.93.93 0 01-.5.14c-.2 0-.37-.04-.51-.13s-.27-.22-.35-.4a1.34 1.34 0 01-.12-.57v-.12c0-.22.04-.42.12-.59a.9.9 0 01.85-.52c.19 0 .35.04.5.13.15.1.26.22.34.4.08.16.13.36.13.58v.1zm-.48-.1c0-.24-.04-.42-.13-.54s-.2-.19-.36-.19a.42.42 0 00-.37.19.95.95 0 00-.13.53v.11c0 .24.05.42.13.55s.21.19.37.19.28-.06.36-.19c.09-.12.13-.3.13-.54v-.1zm2 .6a.24.24 0 00-.1-.21 1.2 1.2 0 00-.33-.15c-.17-.05-.3-.1-.39-.16-.26-.14-.39-.32-.39-.56 0-.12.04-.23.1-.33.08-.1.18-.17.3-.22.13-.06.28-.09.44-.09.17 0 .31.03.44.1.12.05.22.13.3.24s.1.23.1.37h-.47a.3.3 0 00-.1-.24.4.4 0 00-.28-.1c-.11 0-.2.03-.26.08a.23.23 0 00-.1.2c0 .06.04.13.11.18.08.05.19.1.33.14.27.08.46.18.59.3s.18.26.18.44c0 .2-.08.35-.22.46a.98.98 0 01-.6.17c-.18 0-.34-.03-.48-.1-.15-.06-.26-.15-.33-.26s-.12-.24-.12-.39h.47c0 .25.15.38.45.38.11 0 .2-.02.26-.07.07-.04.1-.1.1-.19zm2.5-1.3h-.7v1.89h-.47v-1.9h-.68V22h1.85v.38zm1.64.9h-.9v.61h1.05v.38h-1.52V22h1.52v.38h-1.05v.55h.9v.36zm1.27.16h-.37v.83h-.47V22h.84c.27 0 .48.06.62.18s.22.3.22.51a.7.7 0 01-.1.4.69.69 0 01-.3.24l.49.93v.02h-.5l-.43-.83zm-.37-.38h.37c.12 0 .21-.03.28-.1.06-.05.1-.13.1-.24 0-.1-.04-.2-.1-.25-.06-.06-.15-.1-.28-.1h-.37v.69zm2.84.4v.81h-.47v-2.27h.88c.18 0 .33.03.45.09s.24.15.3.27c.07.11.11.24.11.39 0 .22-.08.4-.23.53a.95.95 0 01-.63.19h-.41zm0-.37h.42c.12 0 .21-.03.28-.09.06-.06.1-.14.1-.25 0-.11-.04-.2-.1-.27s-.16-.1-.27-.1h-.43v.7zm2.96.2h-.9v.6h1.06v.38h-1.53V22h1.53v.38h-1.06v.55h.9v.36zm2.18-.92h-.7v1.9h-.47v-1.9h-.69V22h1.86v.38zm1.64.91h-.9v.61h1.05v.38h-1.52V22h1.52v.38h-1.05v.55h.9v.36zm1.27.16h-.37v.83h-.47V22h.84c.27 0 .48.06.62.18s.22.3.22.51a.7.7 0 01-.1.4.69.69 0 01-.3.24l.49.93v.02h-.5l-.43-.83zm-.37-.38h.37c.12 0 .21-.03.28-.1.06-.05.1-.13.1-.24 0-.1-.04-.2-.1-.25-.06-.06-.15-.1-.28-.1h-.37v.69zm2.75.61a.24.24 0 00-.1-.2 1.2 1.2 0 00-.33-.15c-.16-.05-.3-.1-.39-.16-.26-.14-.39-.32-.39-.56 0-.12.04-.23.1-.33.08-.1.18-.17.3-.22.14-.06.28-.09.44-.09.17 0 .31.03.44.1.12.05.22.13.3.24s.1.23.1.37h-.47a.3.3 0 00-.1-.24.4.4 0 00-.27-.1c-.12 0-.2.03-.27.08a.23.23 0 00-.1.2c0 .06.04.13.11.18.08.05.19.1.33.14.27.08.46.18.59.3s.18.26.18.44c0 .2-.07.35-.22.46a.98.98 0 01-.6.17c-.18 0-.34-.03-.48-.1a.68.68 0 01-.44-.65h.46c0 .25.15.38.45.38.12 0 .2-.02.27-.07.06-.04.09-.1.09-.19z"/></symbol><symbol id="icon-client-5" viewBox="0 0 57 32"><path d="M14.66 24.15c.12.15.19.34.18.54a.85.85 0 01-.28.68c-.24.18-.53.27-.83.25h-1.46V22.2h1.43c.28-.02.56.06.8.23a.79.79 0 01.27.64.8.8 0 01-.17.52.78.78 0 01-.43.27c.2.03.37.13.5.29zm-1.71-.52h.6c.15.01.28-.03.4-.11.04-.04.08-.1.1-.15s.03-.12.03-.19a.41.41 0 00-.13-.33.59.59 0 00-.4-.11h-.6v.9zM14 24.94a.42.42 0 00.14-.35.43.43 0 00-.15-.35.63.63 0 00-.41-.12h-.64v.94h.65c.14 0 .29-.03.4-.12zM17.59 25.62l-.8-1.34h-.3v1.34h-.68V22.2h1.3c.32-.02.64.08.9.3a1.09 1.09 0 01.09 1.4c-.16.19-.38.31-.62.35l.85 1.37h-.75zm-1.1-1.8h.56c.39 0 .58-.18.58-.52a.52.52 0 00-.14-.39.6.6 0 00-.44-.13h-.57l.01 1.04zM21.33 24.93h-1.37l-.24.69H19l1.26-3.38h.77l1.25 3.38h-.72l-.23-.7zm-.18-.52l-.5-1.44-.5 1.44h1zM26.01 25.62h-.68l-1.52-2.33v2.33h-.68V22.2h.68l1.52 2.34V22.2h.68v3.42zM29.9 24.8c-.15.26-.36.47-.62.6a2 2 0 01-.96.22h-1.2V22.2h1.2c.33 0 .66.06.96.21.26.13.47.34.61.6a2 2 0 010 1.79zm-.79-.08a1.25 1.25 0 000-1.63c-.23-.2-.54-.31-.85-.3h-.47v2.22h.47c.31.02.62-.09.85-.3zM21.75 3.2s8.78 3.33 8.6 8.14v8.14s-8.78-3.33-8.6-8.14V3.2zM38.16 17.57a12 12 0 015.57-2.06v-2.55c-2.3.9-4.26 2.51-5.57 4.61z"/><path d="M37.16 18.34a11.93 11.93 0 016.57-5.91V5.09S31.23 9.82 31.5 16.68v11.59s.56-.22 1.43-.61a12.06 12.06 0 014.23-9.32z"/><path d="M35.98 22.65c.06-.8.2-1.6.43-2.38a11.22 11.22 0 00-2.64 7c.7-.34 1.53-.76 2.4-1.27-.22-1.1-.29-2.23-.2-3.35zM36.47 22.69c-.08 1.01-.03 2.03.16 3.04 3.41-2.05 7.25-5.22 7.1-9.05v-.34a11.19 11.19 0 00-6.5 3.05 11.46 11.46 0 00-.76 3.3z"/></symbol><symbol id="icon-client-6" viewBox="0 0 57 32"><path d="M28.66 15.12a1.73 1.73 0 01-.3-1.1v-1.59c0-.48.1-.85.3-1.1s.55-.39 1.04-.39c.46 0 .79.11.98.33.21.27.32.6.3.95v.37h-.83v-.38c0-.12 0-.24-.03-.37a.36.36 0 00-.11-.22.45.45 0 00-.3-.08.47.47 0 00-.32.09.43.43 0 00-.13.24c-.03.13-.04.26-.04.4v1.93c-.01.18.03.37.1.54.05.05.1.1.17.13s.14.04.22.03c.1 0 .2-.03.29-.09a.4.4 0 00.12-.23c.02-.13.03-.26.03-.4v-.38h.82v.35c.03.36-.07.71-.28 1-.2.24-.51.36-.99.36s-.83-.13-1.04-.39zM32.1 15.14c-.21-.25-.31-.61-.31-1.09v-1.67c0-.47.1-.83.3-1.07s.57-.37 1.05-.37c.49 0 .84.12 1.05.37.2.24.31.6.31 1.07v1.67c0 .47-.1.84-.32 1.09s-.55.37-1.04.37-.83-.13-1.04-.37zm1.43-.4a1 1 0 00.1-.5V12.2a.99.99 0 00-.1-.48c-.04-.06-.1-.1-.17-.14s-.14-.03-.21-.02a.42.42 0 00-.4.16.96.96 0 00-.1.48v2.06a1 1 0 00.1.5.52.52 0 00.6.12.5.5 0 00.18-.12v-.01zM35.5 11h.88l.67 3.08.69-3.09h.86l.09 4.46h-.64l-.07-3.1-.66 3.1h-.51l-.69-3.11-.06 3.1h-.65L35.5 11zM39.68 11h1.39c.8 0 1.2.41 1.2 1.26 0 .8-.43 1.2-1.27 1.2h-.47v1.99h-.85v-4.46zm1.19 1.9a.63.63 0 00.47-.14c.1-.15.14-.33.12-.5 0-.14-.01-.28-.04-.41-.01-.04-.04-.09-.07-.12l-.1-.1a.82.82 0 00-.38-.06h-.34v1.33h.34zM43.5 11h.91l.95 4.45h-.8l-.19-1.03h-.81l-.2 1.03h-.8l.94-4.46zm.78 2.9l-.32-1.87-.32 1.88h.64zM46.12 11h.6l1.14 2.53V11h.7v4.46H48l-1.15-2.66v2.66h-.74v-4.46zM50.23 13.75L49.28 11h.8l.58 1.77.55-1.77h.78l-.94 2.75v1.7h-.82v-1.7zM29.98 17.4v.23h-.7v1.81H29v-1.81h-.7v-.23H30zM32.17 19.44h-.23a.1.1 0 01-.06-.02.1.1 0 01-.04-.05l-.2-.48h-.97l-.2.48-.03.06a.1.1 0 01-.07.02h-.22L31 17.4h.3l.87 2.04zm-1.42-.76h.8l-.33-.83a1.61 1.61 0 01-.07-.2c0 .05-.02.08-.03.11l-.03.1-.34.82zM33.64 19.24h.16a.91.91 0 00.26-.06l.12-.05v-.46h-.35-.02l-.02-.02-.01-.02V18.46h.66v.78a1.2 1.2 0 01-.58.21l-.25.01c-.15 0-.3-.02-.43-.07a.98.98 0 01-.56-.54 1.1 1.1 0 01-.08-.43c0-.14.02-.29.08-.42a.95.95 0 01.56-.54 1.32 1.32 0 01.7-.06 1.08 1.08 0 01.52.24l-.09.13-.02.03h-.1a.9.9 0 01-.08-.06.97.97 0 00-.49-.12.92.92 0 00-.33.06.7.7 0 00-.4.42c-.08.22-.08.46 0 .68.03.1.09.18.16.26.07.07.16.12.25.16.11.03.23.05.34.04zM36.37 19.2h.93v.24h-1.22V17.4h.3l-.02 1.8zM38.27 19.44h-.3V17.4h.3v2.04zM39.36 17.4l.04.04 1.25 1.54v-.07-1.52h.26v2.05h-.15l-.06-.01a.16.16 0 01-.05-.04l-1.25-1.54V19.44h-.24V17.4h.2zM43.06 17.4v.22h-1.04v.68h.84v.21h-.84v.7h1.04v.23h-1.34V17.4h1.34zM12.43 4.78L25.4 8.26V20.5L12.43 17V4.77zm-.83-1.05V17.6l14.64 3.93V7.67L11.6 3.73z"/><path d="M19.44 27.97L4.8 24.03V10.17l14.64 3.94v13.86z"/><path d="M11.84 4.62l12.8 3.44-5.44 5.16L6.39 9.78l5.45-5.16zm-.24-.89l-6.8 6.44 14.64 3.94 6.8-6.44L11.6 3.73zM20.27 27.19l5.97-5.66-5.97-1.6v7.26z"/></symbol><symbol id="icon-send" viewBox="0 0 32 32"><path d="M32 0L0 18l10.23 3.79L26 7 14 23.19h.01H14V32l5.74-6.7L27 28l5-28z"/></symbol><symbol id="icon-close-18px" viewBox="0 0 32 32"><path d="M26.67 7.3L24.7 5.33l-7.81 7.81-7.8-7.8L7.1 7.3l7.8 7.81-7.8 7.8 1.97 1.98 7.8-7.8 7.82 7.8 1.97-1.97-7.81-7.8 7.8-7.82z"/></symbol><symbol id="icon-person" viewBox="0 0 32 32"><path d="M16 16a5.33 5.33 0 100-10.66A5.33 5.33 0 0016 16zm0 2.67c-3.56 0-10.67 1.78-10.67 5.33v1.33c0 .74.6 1.34 1.34 1.34h18.66c.74 0 1.34-.6 1.34-1.34V24c0-3.55-7.11-5.33-10.67-5.33z"/></symbol><symbol id="icon-phone" viewBox="0 0 32 32"><path d="M24.88 19.77l-3.27-.37a2.56 2.56 0 00-2.1.73l-2.37 2.37a19.36 19.36 0 01-8.48-8.48l2.38-2.38c.55-.55.82-1.32.73-2.1l-.37-3.25a2.57 2.57 0 00-2.56-2.28H6.6a2.55 2.55 0 00-2.57 2.67 21.86 21.86 0 0020.44 20.44 2.55 2.55 0 002.67-2.57v-2.23c0-1.3-.97-2.4-2.27-2.55z"/></symbol><symbol id="icon-email" viewBox="0 0 32 32"><path d="M26.67 5.33H5.33A2.66 2.66 0 002.68 8l-.01 16c0 1.47 1.2 2.67 2.67 2.67h21.33c1.46 0 2.66-1.2 2.66-2.67V8c0-1.47-1.2-2.67-2.66-2.67zM26.13 11l-9.42 5.9c-.43.26-1 .26-1.42 0L5.87 11a1.13 1.13 0 111.2-1.92L16 14.67l8.93-5.59a1.13 1.13 0 111.2 1.92z"/></symbol><symbol id="icon-checkbox-checked" viewBox="0 0 34 32"><path class="checkbox" fill="#2196f3" d="M4.27 0h25.6a4.27 4.27 0 014.26 4.27v23.46A4.27 4.27 0 0129.87 32H4.27A4.27 4.27 0 010 27.73V4.27A4.27 4.27 0 014.27 0z"/><path class="checkmark" fill="currentColor" stroke-width=".43" d="M8.45 16.53l-.15-.12-.15.12-1.9 1.8-.17.14.17.18 7.62 7.25.13-.15 16.17-15.42-.15-.15-1.88-1.8-.15-.14-.15.14L13.87 21.7l-5.42-5.17z"/></symbol></defs></svg>
